<?xml version="1.0" encoding="utf-8"?>
<!-- Generator: Adobe Illustrator 18.0.0, SVG Export Plug-In . SVG Version: 6.00 Build 0)  -->
<!DOCTYPE svg PUBLIC "-//W3C//DTD SVG 1.1//EN" "http://www.w3.org/Graphics/SVG/1.1/DTD/svg11.dtd">
<svg version="1.1" id="Layer_1" xmlns="http://www.w3.org/2000/svg" xmlns:xlink="http://www.w3.org/1999/xlink" x="0px" y="0px"
	 viewBox="0 0 1700 1400" enable-background="new 0 0 1700 1400" xml:space="preserve">
<g>
	<defs>
		<rect id="SVGID_3_" width="1700" height="1400"/>
	</defs>
	<clipPath id="SVGID_2_">
		<use xlink:href="#SVGID_3_"  overflow="visible"/>
	</clipPath>
	<g clip-path="url(#SVGID_2_)">
		<g>
			<path fill="#CDB8D6" d="M104.5,288.6c28.6-13.1,64.4-8.5,88.8,11.3s36.3,53.9,29.4,84.6c67.3-42,157.7-43.9,226.6-4.6
				S562.9,497.8,561,577.1c26.9-20.4,65.2-29.9,98.6-25.2c33.4,4.7,64.7,23.1,85,50.1c16.6-34,47.1-61,82.9-73.3
				c35.8-12.4,76.4-10,110.5,6.4c15.5-63.4,65.4-123,127.5-143.5s134.2-6.8,184.4,35c-2.7-26.2,10-53.5,31.9-68.3
				c21.9-14.8,51.9-16.4,75.3-4c47.8-91.9,171.1-131.7,268.9-97.4c22.3-18.6,47.4-33.7,74.2-44.9V0h-147.6
				c-52.3,38.8-96.8,87.5-127.6,143.3c-27.2-18.8-63.2-24.1-94.7-13.9c-31.4,10.2-65.8,34.3-76.8,65.5
				c-35.3-18.9-78.3-22.8-116.4-10.5c-38.1,12.3-75.5,46.4-93,82.4c-63.5-55.1-146.6-87.3-230.7-89.4c-84.1-2.1-168.6,26-234.7,78
				c-18-42.3-58.3-74.3-103.6-82.2c-45.3-7.9-89.8,1.1-120.9,34.9c-34.8-77.9-94.7-144.4-168.7-187C171.6,13.3,157.4,6.2,142.9,0H0
				v167.6C55.2,180.7,102,231.1,104.5,288.6z"/>
			<path fill="#A8A8C9" d="M354,208.2c31.2-33.8,75.7-42.8,120.9-34.9c45.3,7.9,85.6,39.9,103.6,82.2c66.1-52,150.7-80.1,234.7-78
				c84.1,2.1,167.1,34.2,230.7,89.4c17.5-36,54.9-70.1,93-82.4c38.1-12.3,81.1-8.4,116.4,10.5c11-31.1,45.4-55.3,76.8-65.5
				c31.4-10.2,67.5-4.9,94.7,13.9c30.9-55.8,75.3-104.5,127.6-143.3H142.9c14.5,6.2,28.7,13.3,42.4,21.2
				C259.2,63.8,319.2,130.2,354,208.2z"/>
			<path fill="#C1D5E5" d="M215.1,679.5c27.3-22.3,66.1-29.7,99.7-19.1s61.1,39,70.7,72.9c103.7-70.1,258.7-49.2,340.2,45.9
				c37.8-50.3,116.9-63.2,168.7-27.5c8.5-32.8,35.2-60.3,67.7-69.7c32.6-9.4,69.8-0.4,94.5,22.8c31.7-67,99.3-121.5,168.6-147.8
				c69.2-26.4,148.6-24.8,216.8,4.2c56.5-84.2,157.1-134.8,257.9-136.5V212c-26.8,11.2-51.9,26.3-74.2,44.9
				c-97.7-34.3-221,5.5-268.9,97.4c-23.3-12.3-53.4-10.7-75.3,4c-21.9,14.8-34.6,42-31.9,68.3c-50.2-41.8-122.4-55.4-184.4-35
				s-111.9,80-127.5,143.5c-34.1-16.4-74.7-18.8-110.5-6.4C791.7,541,761.2,568,744.6,602c-20.3-27-51.5-45.4-85-50.1
				c-33.4-4.7-71.7,4.9-98.6,25.2c1.8-79.3-42.7-158-111.7-197.2s-159.3-37.4-226.6,4.6c6.9-30.7-5-64.8-29.4-84.6
				s-60.2-24.4-88.8-11.3C102,231.1,55.2,180.7,0,167.6v294.2C99.4,497,182.3,579,215.1,679.5z"/>
			<path fill="#E7D4E8" d="M1516.9,1010.1c-44.2-47.9-112.5-72.4-177-63.5c-64.6,8.8-123.7,50.8-153.5,108.8
				c-51.7-51.4-148-45.7-193.4,11.3c-64.6-52.9-156.3-70.9-236.1-46.3s-145.5,91-169.1,171.2c-35.2-46.2-113.1-50.4-153-8.2
				c-3.3-62.4-39.2-122.1-92.8-154.2c-53.5-32.2-123.1-35.9-179.7-9.5C135.1,955.9,68.4,913.8,0,908.8V1126
				c80.6,12.5,155.1,66.4,187.9,141.6c16.6-20.3,44-31.3,70-28s49.8,20.7,60.8,44.5c44.3-47,112.8-70,176.5-59.1
				c63.7,10.9,120.7,55.2,147,114.3c24.4-38.3,64.7-66.1,109.1-75.4c44.4-9.3,92.5-0.1,130.2,25c4.4-29.1,25.6-54.4,53.5-63.8
				s60.8-1.8,81.8,18.9c-5.1-43.7,18.8-87.9,54.8-113c36.1-25.2,82.4-32.9,126.1-27.5c64,7.8,124.2,43,162.4,94.9
				c11.2-34.5,42.9-61.4,78.7-66.7s74,11.1,94.8,40.7c6.4-40.7,30.1-78.5,64.1-101.9c29.6-20.4,66.5-29.7,102.2-26.2V868.2
				C1622.7,887.7,1552.8,938.6,1516.9,1010.1z"/>
			<path fill="#FFE7E0" d="M198.4,891.4c26.5-23.5,65.3-32.5,99.4-22.9c34.1,9.6,62.6,37.3,73.1,71.2
				c86.1-54.1,208.5-41.4,281.7,29.2c36.2-56.5,120.1-75.3,176.9-39.8c26.9-72.5,95.2-128,171.7-139.4c76.5-11.5,158,21.5,205,82.9
				c18-31.9,56.3-56.1,92.5-61.9c36.2-5.7,74.8,5.9,101.7,30.7c-17.4-60.9,8.7-131.7,61.5-166.7s128.1-31.6,177.5,8.1
				c16.1-23.9,36.8-44.4,60.4-60.5V424.8c-100.8,1.7-201.5,52.4-257.9,136.5c-68.2-29-147.6-30.5-216.8-4.2
				c-69.2,26.4-136.9,80.8-168.6,147.8c-24.7-23.2-61.9-32.2-94.5-22.8c-32.6,9.4-59.3,36.9-67.7,69.7
				c-51.8-35.7-130.9-22.9-168.7,27.5c-81.5-95.1-236.4-116-340.2-45.9c-9.6-34-37-62.3-70.7-72.9s-72.4-3.2-99.7,19.1
				C182.3,579,99.4,497,0,461.8v255.7C90.7,734.1,172.8,802.1,198.4,891.4z"/>
			<path fill="#FEE2E7" d="M1639.6,682.8c-49.4-39.7-124.7-43.1-177.5-8.1s-78.9,105.8-61.5,166.7c-27-24.8-65.5-36.5-101.7-30.7
				c-36.2,5.7-74.6,29.9-92.5,61.9c-47-61.4-128.6-94.4-205-82.9c-76.5,11.5-144.7,66.9-171.7,139.4
				c-56.8-35.5-140.8-16.7-176.9,39.8c-73.2-70.7-195.6-83.4-281.7-29.2c-10.4-33.9-38.9-61.6-73.1-71.2
				c-34.1-9.6-72.9-0.6-99.4,22.9C172.8,802.1,90.7,734.1,0,717.6v191.2c68.4,5,135.1,47.1,162.2,110.8
				c56.6-26.3,126.2-22.6,179.7,9.5c53.5,32.2,89.4,91.9,92.8,154.2c39.9-42.2,117.9-38,153,8.2c23.6-80.1,89.3-146.6,169.1-171.2
				s171.5-6.6,236.1,46.3c45.3-57,141.7-62.7,193.4-11.3c29.7-58,88.9-99.9,153.5-108.8c64.6-8.8,132.8,15.7,177,63.5
				c35.9-71.5,105.8-122.4,183.1-141.9V622.3C1676.4,638.4,1655.6,658.9,1639.6,682.8z"/>
			<path fill="#F9E8F2" d="M1597.8,1070.6c-33.9,23.4-57.7,61.2-64.1,101.9c-20.8-29.7-59-46.1-94.8-40.7s-67.6,32.3-78.7,66.7
				c-38.2-52-98.4-87.1-162.4-94.9c-43.7-5.3-90,2.4-126.1,27.5c-36.1,25.2-60,69.4-54.8,113c-21-20.6-53.9-28.2-81.8-18.9
				s-49.2,34.6-53.5,63.8c-37.8-25.2-85.8-34.4-130.2-25c-44.4,9.3-84.7,37.2-109.1,75.4c-26.2-59.1-83.3-103.4-147-114.3
				c-63.7-10.9-132.2,12.1-176.5,59.1c-11-23.8-34.8-41.2-60.8-44.5s-53.4,7.7-70,28C155.1,1192.5,80.6,1138.6,0,1126v274h1700
				v-355.6C1664.3,1040.9,1627.3,1050.2,1597.8,1070.6z"/>
		</g>
		<g>
			<path fill="#F9E8F2" d="M245.2,1158.3c8.9,12.4,21.9,22.1,36.7,25.6c14.8,3.5,31.4,0.5,43.2-9.2c11.8-9.7,17.9-26.2,14-41
				c-3.2-12.2-12.7-22.2-24.2-27.6c-11.4-5.4-24.5-6.5-37-5c-9.9,1.2-19.7,4.1-27.6,10.1c-7.9,6-13.6,15.4-13.5,25.3
				C237,1144.5,240.6,1151.9,245.2,1158.3z"/>
			<path fill="#F9E8F2" d="M371.6,1103.4c11.7,3.8,25.5-0.9,32.6-10.9c7-10,6.7-24.7-0.9-34.3c-7.5-9.7-21.6-13.6-33.1-9.2
				s-19.4,16.7-18.5,28.9C352.4,1089.2,360.7,1099.8,371.6,1103.4z"/>
			<path fill="#F9E8F2" d="M327.7,1035.6c4.5,4,11.1,5.5,16.9,3.7c7.4-2.3,12.7-10.1,12.2-17.8c-0.5-7.7-6.9-14.7-14.6-16
				s-15.9,3.3-18.9,10.5C320.6,1022.6,322.4,1030.8,327.7,1035.6z"/>
			<path fill="#F9E8F2" d="M852.6,1169.1c8.6,9,22.6,9.5,35,8.6c15.5-1.2,31.4-3.8,44.3-12.4s22.1-24.4,18.7-39.5
				c-3.5-15.6-19.5-26.2-35.5-27.3c-16-1-31.5,5.9-44.6,15.1c-9.1,6.4-17.6,14.2-21.9,24.4C844.2,1148.1,844.9,1161,852.6,1169.1z"
				/>
			<path fill="#F9E8F2" d="M952.9,1091.2c8.1,3.8,17.8,2.1,25.8-1.8c7-3.4,13.3-8.6,17-15.4c3.7-6.8,4.6-15.4,1.4-22.4
				c-3.1-6.9-10-11.9-17.5-13.5s-15.4,0-22.1,3.6c-9.1,4.8-16.2,13.7-17.6,23.9S943.6,1086.9,952.9,1091.2z"/>
			<path fill="#F9E8F2" d="M910.2,1015.8c-21.1-21.7-53.7-31.5-83.3-24.8c-12.2,2.8-25.2,9.9-27.5,22.1c-1.8,9.4,3.3,18.6,9.3,26
				c17.6,21.9,44.7,35.8,72.7,37.5c15.8,0.9,34.1-3.6,41-17.8C929.3,1044.5,921.2,1027.2,910.2,1015.8z"/>
			<path fill="#F9E8F2" d="M1277.7,923.3c-22.6-6.5-50-2.6-64.7,15.8c-10.5,13.1-12.8,31.5-8.3,47.7c4.5,16.1,15.3,30,28.2,40.6
				c17.5,14.4,41.5,23.6,63.2,16.9c26.1-8,41.5-38.6,36.1-65.4C1326.9,952.1,1303.9,930.8,1277.7,923.3z"/>
			<path fill="#F9E8F2" d="M1372.1,960.1c5.8,2.8,13,2.1,18.7-1c5.7-3.1,9.9-8.5,12.5-14.4c5.5-12.1,4.6-26.5-0.7-38.6
				c-5.4-12.1-14.9-22.1-26-29.4c-9.4-6.2-20.5-10.8-31.6-9.3c-11.1,1.5-21.7,10.7-21.8,21.9c-0.1,8,4.9,15.1,9.6,21.6
				c9.2,12.5,18.3,25,27.5,37.6C1363.6,953,1367.1,957.7,1372.1,960.1z"/>
			<path fill="#F9E8F2" d="M1583.7,907.4c13.3,11.9,33.6,18.5,49.1,9.7c13.3-7.6,18.8-24,20.3-39.2c1.3-12.6,0.6-25.5-4-37.3
				c-4.5-11.8-13.2-22.3-24.7-27.4c-15-6.6-33.5-3.1-45.9,7.6c-12.4,10.7-18.5,27.8-17.1,44.1C1563,881.2,1571.5,896.5,1583.7,907.4
				z"/>
			<path fill="#F9E8F2" d="M1511.9,768.8c-2.7,6.7-0.6,14.4,2.6,20.9c3.6,7.2,9.1,14.1,16.8,16.7c9,3.1,19.7-0.9,25.1-8.7
				s5.3-18.8,0.4-27c-4.9-8.1-14.3-13.2-23.7-13.6C1524.4,756.8,1515.1,760.8,1511.9,768.8z"/>
			<path fill="#F9E8F2" d="M1586.6,739.1c0.1,5,0.6,10,2.9,14.5c4,7.8,13.1,12.4,21.8,11.9c8.8-0.5,16.9-5.6,22.1-12.7
				s7.6-15.9,7.9-24.7c0.4-12.3-4.4-26.2-15.8-31c-10.5-4.4-23.2,0.7-30.2,9.7S1586.4,727.8,1586.6,739.1z"/>
			<path fill="#F9E8F2" d="M1558.8,677.4c-7.9,5.1-10,17.2-4.4,24.7c5.3,7.1,16.5,8.8,23.7,3.6c7.2-5.2,9.2-16.3,4.2-23.6
				C1577.3,674.8,1566.2,672.5,1558.8,677.4z"/>
		</g>
		<path fill="#E7D4E8" d="M463.4,862.6c-19.1-6-42.8-4.7-55.6,10.8c-9.1,11-10.5,26.9-6.3,40.6s13.1,25.3,23,35.6
			c13.3,13.8,30.6,26.2,49.7,25.3c17.7-0.9,33.7-14.2,39.5-31c5.8-16.8,2.2-36.1-7.7-50.8C496.1,878.2,480.3,867.9,463.4,862.6z"/>
		<path fill="#E7D4E8" d="M124.4,827.6c-10.6,29.7-0.2,65,23,86.4c23.2,21.4,57.5,29,88.3,22.3c14.6-3.2,28.9-9.6,39.1-20.6
			c10.1-11,15.4-27.1,11-41.4c-5.4-17.9-23.4-28.6-39.9-37.5c-18.2-9.8-36.4-19.7-54.6-29.5c-10.7-5.8-22.3-11.8-34.4-10.3
			C141.4,798.8,129.6,812.8,124.4,827.6z"/>
		<path fill="#E7D4E8" d="M95.6,781.5c18.2-2.6,31.2-23.7,25.5-41.2c-5.7-17.5-28.7-26.7-44.9-18.1c-16.2,8.6-21.4,32.9-10.1,47.4
			C72.9,778.4,84.6,783.1,95.6,781.5z"/>
		<path fill="#E7D4E8" d="M719.5,873.4c-9.5,9.1-16.7,21-18.6,34c-1.9,13,2.2,27.2,11.9,36c13.5,12.2,36.5,11.1,49.5-1.6
			c13-12.7,14.9-34.9,4.9-50.1C757.3,876.3,737.1,869,719.5,873.4z"/>
		<path fill="#E7D4E8" d="M1069.2,936.5c23-12.1,41.3-35.6,41.5-61.6c0.2-26-21.9-51.8-47.9-50.6c-14.3,0.7-27.1,8.7-39.1,16.5
			c-17.2,11.1-34.3,22.1-51.5,33.2c-8.2,5.3-17,11.5-19.2,20.9c-2.9,12.9,8,24.7,19.3,31.5C1005.9,946.7,1034.5,954.8,1069.2,936.5z
			"/>
		<path fill="#E7D4E8" d="M1040.2,780.6c-3.1-8-10.9-14-19.4-15s-17.5,3-22.4,10.1c-6.2,9-5.1,22.2,2.5,30.1
			c7.6,7.8,20.8,9.4,30,3.5C1040.1,803.5,1044.2,790.8,1040.2,780.6z"/>
		<path fill="#E7D4E8" d="M1421,713c-5.1-16.3-22-28.1-39-27.3c-17,0.8-32.7,14.1-36.3,30.8c-2.6,12,0.6,24.4,4.7,35.9
			c8.3,23.9,20.3,46.6,35.4,66.9c8.1,10.9,17.6,21.5,30.3,26.4s29.2,2.2,36.4-9.3c7.7-12.1,2.6-28.3-5.2-40.3
			c-7.8-12-18.3-22.8-22.1-36.6C1421.1,744.5,1425.7,727.9,1421,713z"/>
		<path fill="#FFE7E0" d="M424.4,565.5c4.6-21-7.7-43.5-26.2-54.5c-11.8-7-25.4-10-38.8-12.8c-13-2.8-26-5.5-38.9-8.3
			c-9.2-2-18.8-3.9-27.8-1.3c-17.7,5.1-26.5,26.7-22.7,44.7c3.8,18,17.1,32.5,31.3,44.1c19.2,15.7,42.4,28.3,67.2,28.2
			C393.3,605.5,419.1,589.7,424.4,565.5z"/>
		<path fill="#FFE7E0" d="M244.9,408.9c-14.1-8-33.9-3.6-43.3,9.6c-9.4,13.2-7,33.4,5.2,44c7.5,6.6,18.1,9.4,27.8,7.6
			c11.6-2.2,21.7-11.1,25.3-22.3C264.6,433.5,258,416.4,244.9,408.9z"/>
		<path fill="#FFE7E0" d="M279.7,352.9c-5.9,4.8-9.7,12.1-10.2,19.7c-1.2,16.8,16,32.3,32.6,29.4c11.2-1.9,20.6-11.3,22.6-22.5
			c2-11.1-3.5-23.3-13.3-29C301.8,344.7,288.5,345.7,279.7,352.9z"/>
		<path fill="#FFE7E0" d="M202.4,363.8c-0.3,7,3,14,8.4,18.3c7.2,5.7,18.1,6.1,25.8,1.1c7.7-5,11.6-15.2,9.2-24.1
			c-2.7-10.1-13.4-17.5-23.8-16.3S202.8,353.3,202.4,363.8z"/>
		<path fill="#FFE7E0" d="M745.3,541.3c-7.2,8.4-9.9,19.9-17.2,28.2c-13.3,15.2-39,16.4-49.5,33.7c-8.6,14.1-2.1,33.9,11.2,43.8
			c13.3,9.9,31.2,11.3,47.5,8.4c19-3.4,37-12.3,51.3-25.3c13.3-12.1,23.4-28.4,25.5-46.2c2.1-17.9-4.9-37.2-19.7-47.4
			C779.5,526.4,757,527.7,745.3,541.3z"/>
		<path fill="#FFE7E0" d="M858.9,543.7c18.4-5.2,29.1-28.5,21.2-45.9c-8-17.4-32.6-24.5-48.6-14c-13.2,8.6-18.6,27.4-12,41.7
			C826,539.9,843.7,548,858.9,543.7z"/>
		<path fill="#FFE7E0" d="M651.4,566.9c18,7.7,39-2.8,52.1-17.4c5.2-4.4,7.4-11.7,6.5-18.4c-0.9-6.7-4.5-12.9-9.2-17.8
			c-10.1-10.6-25.8-15.8-40.1-12.4c-14.3,3.4-26.3,15.5-28.6,30C629.9,545.3,638,561.1,651.4,566.9z"/>
		<path fill="#FFE7E0" d="M1031.5,348.1c-9.3,10.8-12.8,25.4-13.7,39.6s0.5,28.4-0.3,42.6c-0.8,14.3-3.7,29.3,2.3,42.3
			c5.8,12.6,19.3,20.6,33,22s27.7-2.8,39.7-9.6c27.3-15.4,46.9-44.9,47.6-76.2c0.7-31.3-18.9-62.8-48.3-73.5
			C1071.3,327.8,1045.8,331.5,1031.5,348.1z"/>
		<path fill="#FFE7E0" d="M1003.3,435.9c1.3-14.9-12.8-29.1-27.6-28s-26.8,17.1-23.4,31.6c3.3,14.5,21.1,23.8,34.9,18.2
			C996,454.2,1002.5,445.4,1003.3,435.9z"/>
		<path fill="#FFE7E0" d="M1468.5,349c9.4-18.1,8.1-41.4-3.6-58.1c-11.7-16.7-33.4-25.9-53.5-22.2c-14,2.6-27.4,12-31.6,25.6
			c-4.4,14.4,1.9,29.7,8.2,43.4c5.9,12.8,12.7,26.4,25.2,33c9.7,5.2,21.8,5,31.9,0.7S1463.4,358.8,1468.5,349z"/>
		<path fill="#FFE7E0" d="M1482.3,219.9c-2.6,1-4.9,2.6-6.7,4.6c-6.5,7.3-6,18.2-5.1,27.9c0.7,7.8,1.5,16,5.6,22.7
			c4,6.8,12.2,11.8,19.7,9.5c7.8-2.3,11.7-10.9,13.9-18.8c2.9-10.7,4.2-22.5-0.3-32.6C1504.7,223.2,1492.6,215.9,1482.3,219.9z"/>
		<path fill="#FFE7E0" d="M1445.7,222.3c1.2-6.7,1.6-13.8-0.5-20.3c-2.1-6.5-7.1-12.4-13.7-14.1c-9.8-2.6-20.2,5-23.3,14.7
			c-3.1,9.7-0.3,20.3,4.6,29.2c3,5.5,7.5,10.9,13.7,11.7c5.3,0.7,10.5-2.3,13.7-6.5S1444.8,227.5,1445.7,222.3z"/>
		<path fill="#C1D5E5" d="M215.3,118.7c2.8,10.7,8.8,20.3,14.8,29.6c8.8,13.7,19.9,28.6,36.1,30.2c11.6,1.2,23-5.3,30.1-14.5
			c7.1-9.2,10.4-20.9,11.9-32.4c1.8-13.9,1.3-28.4-3.7-41.5S289.8,65.4,276.8,60c-16.2-6.6-36.1-2.2-48.6,10.1
			C215.7,82.5,210.9,101.7,215.3,118.7z"/>
		<path fill="#C1D5E5" d="M324.6,171.7c-7.7,3.9-13,11.7-15.7,19.9c-2.7,8.2-3.2,17-3.6,25.7c-0.5,9.1-0.8,18.9,4.2,26.5
			c6.6,10,21,12.7,32.1,8.1c11-4.6,18.8-15.1,22.9-26.3c5-13.5,5.2-29.5-2.5-41.6C354.3,171.8,337.4,165.2,324.6,171.7z"/>
		<path fill="#C1D5E5" d="M175.9,213.2c-16.3-18.4-24.6-43.6-22.6-68.1c0.6-6.8,2-13.8,6.6-18.8s13.1-6.8,18.2-2.4
			c3.5,3.1,4.5,8.1,6.1,12.5c4,10.9,12.8,19.2,21.7,26.6c8.9,7.4,18.4,14.5,24.7,24.2c6.3,9.7,8.7,23,2.5,32.8
			c-5.9,9.5-18.6,13.2-29.5,11C192.6,228.8,183.2,221.6,175.9,213.2z"/>
		<path fill="#C1D5E5" d="M483.1,251c1.5,6.9,5.1,13,8.7,19.1c11.4,19.4,22.8,38.8,34.1,58.2c5.4,9.2,11,18.6,19.4,25
			c17.8,13.6,45.4,9.8,61.4-5.8s21.1-40.4,16.2-62.3c-4.9-21.9-18.5-41-35-56.2c-11.7-10.8-25.2-20-40.5-24.3
			c-15.3-4.3-32.6-3.2-46,5.4S479.6,235.4,483.1,251z"/>
		<path fill="#C1D5E5" d="M652.4,215.5c-5.6,14.8-6.5,31.9,0.1,46.2c6.6,14.4,21.7,25.2,37.5,24.4c14.6-0.8,27.5-11.2,34.2-24.2
			c6.7-13,8-28.2,6.8-42.7c-0.8-10.6-3-21.4-8.8-30.3c-5.8-8.9-15.8-15.6-26.4-15.1c-8.7,0.4-16.5,5.4-22.9,11.3
			C663.9,193.4,656.8,204,652.4,215.5z"/>
		<path fill="#C1D5E5" d="M637.3,142.7c-2.2-14.1-12.9-25.1-23-35.1c-6.6-6.5-13.3-13.1-21.7-17.1s-18.7-5-26.6-0.3
			c-8.9,5.3-12.6,16.7-11.8,27s5.4,19.9,9.9,29.2c5.5,11.3,11.5,23.2,22.1,29.9c10.8,6.8,25.6,6.6,36.3-0.5
			C633.3,168.9,639.3,155.4,637.3,142.7z"/>
		<path fill="#C1D5E5" d="M1047.8,283.9c14.3-3.1,29.5-6.7,39.9-17c15.6-15.7,14.2-43.7-0.5-60.3c-14.6-16.6-39.2-22.2-60.8-17.7
			c-21.7,4.6-40.6,18-55.8,34.1c-11,11.7-20.8,25.9-21.6,41.9s10.2,33.5,26.3,34.7C999.4,294.4,1023.6,289.2,1047.8,283.9z"/>
		<path fill="#C1D5E5" d="M925.2,289c-6.3-4.7-14.6-6.9-22.2-4.7c-10.9,3.1-17.7,14.6-18.8,25.9c-0.6,6.4,0.3,13.1,3.4,18.7
			c5.4,9.6,17.6,14.8,28.4,12.3c10.8-2.5,19.5-12.1,21.2-23S934.1,295.6,925.2,289z"/>
		<path fill="#C1D5E5" d="M1272.5,281.4c11-11,16.4-27.5,13.2-42.7c-3.1-15.2-14.9-28.5-29.8-33c-15.6-4.7-34.8,1.9-41.7,16.7
			c-5,10.9-2.9,23.7-0.6,35.5c1.9,9.7,4,20,10.8,27.1c6.2,6.4,15.6,9.3,24.5,8.2C1257.9,292.2,1266.2,287.7,1272.5,281.4z"/>
		<path fill="#C1D5E5" d="M1278.5,129c-7.6,2.7-12.3,10.2-15.1,17.7c-3.6,9.8-4.7,21-0.3,30.4c4.4,9.4,15.3,16.2,25.3,13.5
			c10.2-2.7,16.1-13.6,18.2-23.9c1.9-9.3,1.4-19.6-3.6-27.7S1287.5,125.9,1278.5,129z"/>
		<path fill="#C1D5E5" d="M1240.7,157.7c-1.5-7.8-10.2-13.4-17.9-11.5c-7.7,1.9-12.8,10.9-10.5,18.5c2.2,7,10.3,11.7,17.5,9.9
			C1237,172.8,1242,164.9,1240.7,157.7z"/>
		<path fill="#C1D5E5" d="M1636.8,122.2c9.9-7.8,19.5-16.2,26.2-26.9c6.7-10.6,10.2-23.9,6.8-36c-5.8-20.8-30.7-31.8-52.1-28.2
			s-39.2,18.1-53.8,34.1c-7.8,8.5-15,17.6-19.2,28.3s-4.9,23.2,0.3,33.4c7.9,15.7,28,22.3,45.4,19.4
			C1607.8,143.5,1623,133.1,1636.8,122.2z"/>
		<path fill="#CDB8D6" d="M775.6,44.8c8.2,14.2,24.7,21.7,40.9,24.2c16.2,2.5,32.7,0.9,49.1,1.7c23.9,1.2,50.3,6.8,70-6.8
			c17.2-11.9,22.9-36.3,16-56s-24.6-34.4-44.3-41.3c-19.7-7-41.2-7-61.9-4.1c-21.1,2.9-42.7,9.3-58.1,24.1
			C772.1,1.4,765,26.3,775.6,44.8z"/>
		<path fill="#CDB8D6" d="M998.3,16.4c-17.1,7.7-25.6,30.3-17.8,47.4c7.7,17.1,30.3,25.5,47.4,17.8c17.1-7.8,25.5-30.4,17.7-47.4
			C1037.9,17.1,1015.4,8.6,998.3,16.4z"/>
		<path fill="#CDB8D6" d="M497.3-33.1c-13.8,0.5-28,1.3-40.3,7.6C444.7-19.2,434.9-5.9,437,7.7c1.8,11.4,11.5,20.3,22.3,24.5
			c10.8,4.2,22.6,4.4,34.2,4.7c23.7,0.5,47.4,0.9,71,1.4c5,0.1,10.2,0.2,14.9-1.7c7.6-3.1,12.5-11.1,13.2-19.2s-2.4-16.3-7.1-23
			c-9.3-13.1-24.5-21.1-40.2-24.7C529.6-34,513.4-33.7,497.3-33.1z"/>
		<path fill="#CDB8D6" d="M362.5,2.2C375-9.2,396-9.7,409.1,1c5.7,4.6,10.1,11.8,8.9,19c-1.4,8.5-9.5,14-17.2,17.7
			c-7.7,3.7-16.1,6.6-24.6,6.2s-17.3-4.7-21.2-12.3C350,21.9,354.4,9.5,362.5,2.2z"/>
		<path fill="#CDB8D6" d="M439.6,51.2c-5.9-2.4-12.8-1.8-18.3,1.4c-5.5,3.2-9.3,9-10.1,15.3c-1.3,10.2,6.2,20.8,16.2,23
			s21.3-4.4,24.3-14.2S449.1,55,439.6,51.2z"/>
		<path fill="#CDB8D6" d="M1316.6,34.9c14.9-10.5,26.1-26,31.1-43.4c3.3-11.3,3.6-24.4-3.5-33.8c-8.9-11.6-25.8-13.1-40.1-10.6
			c-15.2,2.7-30,9.1-41.1,19.8s-18.1,26.1-17,41.5s11.1,30.3,25.6,35.5C1286.5,49.3,1303.6,44,1316.6,34.9z"/>
		<path fill="#CDB8D6" d="M1385.9,29.5c10.6,2.4,22.5-2.2,28.6-11.3c6.1-9,6.1-21.8-0.1-30.8s-18.1-13.6-28.7-11.1
			c-6.8,1.6-12.9,5.9-16.7,11.7c-4.8,7.3-5.7,17-2.4,25.1S1377.4,27.5,1385.9,29.5z"/>
		<path fill="#CDB8D6" d="M1367.6,71.7c8.7-4.9,11.4-18,5.3-26s-19.4-8.9-26.5-1.8s-6.2,20.4,1.7,26.5
			C1353.6,74.6,1361.6,75.1,1367.6,71.7z"/>
	</g>
</g>
</svg>
